<svg width="48" height="48" viewBox="0 0 48 48" fill="none" xmlns="http://www.w3.org/2000/svg">
<path d="M21.39 17.874V20.628H19.374V23.994H21.39V34H25.534V23.994H28.314C28.314 23.994 28.576 22.38 28.702 20.614H25.55V18.314C25.55 17.968 26.002 17.506 26.45 17.506H28.706V14H25.636C21.288 14 21.39 17.37 21.39 17.874Z" fill="#201D26"/>
<path d="M24 40C28.2435 40 32.3131 38.3143 35.3137 35.3137C38.3143 32.3131 40 28.2435 40 24C40 19.7565 38.3143 15.6869 35.3137 12.6863C32.3131 9.68571 28.2435 8 24 8C19.7565 8 15.6869 9.68571 12.6863 12.6863C9.68571 15.6869 8 19.7565 8 24C8 28.2435 9.68571 32.3131 12.6863 35.3137C15.6869 38.3143 19.7565 40 24 40ZM24 44C12.954 44 4 35.046 4 24C4 12.954 12.954 4 24 4C35.046 4 44 12.954 44 24C44 35.046 35.046 44 24 44Z" fill="#201D26"/>
</svg>
