<svg width="233" height="48" viewBox="0 0 233 48" fill="none" xmlns="http://www.w3.org/2000/svg">
<path fill-rule="evenodd" clip-rule="evenodd" d="M8.16675 46.467L8.14847 46.4596C5.71854 45.443 3.7165 43.9415 2.24682 41.9177L2.23857 41.9062L2.23044 41.8947C0.725768 39.7724 0.0163574 37.2876 0.0163574 34.5564C0.0163574 34.086 0.0394351 33.6254 0.0883721 33.1764L0.424381 29.7909H13.2848L13.0426 32.4753C13.0088 32.8503 12.994 33.1683 12.994 33.434C12.994 34.4631 13.3119 35.1524 13.9124 35.7105C14.572 36.2532 15.5776 36.6438 17.1766 36.6438C19.0304 36.6438 20.166 36.185 20.8844 35.5564C21.613 34.8822 22.0041 34.0316 22.0041 32.7841C22.0041 32.0091 21.7735 31.6093 21.41 31.3015C20.7046 30.7046 19.7257 30.1441 18.4033 29.6658L18.3937 29.6624L18.3842 29.6588C16.9071 29.1105 15.3512 28.5422 13.7163 27.9539L13.7097 27.9516L13.7031 27.9491C10.8305 26.8967 8.45186 25.3833 6.73918 23.3126C4.98863 21.196 4.12072 18.6823 4.12072 15.8881C4.12072 12.8113 4.90312 10.0131 6.53713 7.59197L6.54006 7.58762L6.54304 7.58327C8.1755 5.18651 10.3825 3.35357 13.0944 2.07844L13.1015 2.07517L13.1084 2.07193C15.8643 0.797407 18.9582 0.193359 22.3363 0.193359C26.4428 0.193359 30.0169 1.19953 32.8255 3.44383C35.7208 5.75743 37.1512 8.95242 37.1512 12.7571C37.1512 13.0996 37.13 13.4472 37.0914 13.7976C37.0858 14.1639 37.0603 14.5294 37.0151 14.8938L36.7476 17.05H23.8284L24.1299 14.3166C24.1603 14.0409 24.1735 13.7975 24.1735 13.5841C24.1735 13.0864 24.0151 12.6501 23.519 12.1712C23.1862 11.8498 22.5181 11.4967 21.105 11.4967C19.5502 11.4967 18.6051 11.9022 17.99 12.4599L17.9866 12.4631C17.3856 13.006 17.0984 13.6319 17.0984 14.5294C17.0984 15.1486 17.2664 15.4562 17.49 15.6785C17.9999 16.1332 18.7736 16.6174 19.8968 17.086C21.2004 17.588 22.6394 18.1293 24.2143 18.7099C26.0819 19.3681 27.799 20.251 29.3536 21.3651C31.021 22.4916 32.3794 23.8996 33.3894 25.5884C34.522 27.414 35.0404 29.5111 35.0404 31.7798C35.0404 34.9816 34.2152 37.8851 32.4952 40.3884C30.8153 42.833 28.5237 44.7004 25.7033 46.0083L25.6887 46.0153L25.674 46.0219C22.8491 47.2867 19.6874 47.8881 16.2384 47.8881C13.2962 47.8881 10.5967 47.4373 8.18515 46.4744L8.16675 46.467ZM27.9652 23.3909C26.5971 22.4063 25.0726 21.6186 23.3918 21.0278C21.7891 20.4371 20.3232 19.8857 18.9942 19.3737C17.6652 18.8223 16.6098 18.1921 15.828 17.4832C15.0462 16.7349 14.6553 15.7503 14.6553 14.5294C14.6553 12.954 15.2221 11.6543 16.3557 10.6303C17.5284 9.5669 19.1115 9.03521 21.105 9.03521C22.9031 9.03521 24.2713 9.48813 25.2094 10.394C25.9561 11.1149 26.4056 11.9356 26.558 12.8561C26.5971 13.0922 26.6166 13.3349 26.6166 13.5841C26.6166 13.8992 26.5971 14.234 26.558 14.5884H34.5908C34.6299 14.2734 34.6495 13.9583 34.6495 13.6432C34.6886 13.3281 34.7081 13.0328 34.7081 12.7571C34.7081 9.64567 33.5745 7.18413 31.3073 5.37244C29.0402 3.56074 26.0498 2.6549 22.3363 2.6549C19.2483 2.6549 16.512 3.20628 14.1276 4.30906C11.7822 5.41183 9.92548 6.96752 8.55736 8.97613C7.22832 10.9454 6.5638 13.2494 6.5638 15.8881C6.5638 18.1331 7.24787 20.0826 8.61599 21.7367C9.98412 23.3909 11.9581 24.6906 14.538 25.6358C16.1798 26.2266 17.7433 26.7977 19.2287 27.3491C20.7532 27.9004 22.0041 28.5897 22.9813 29.4167C23.9585 30.2438 24.4472 31.3663 24.4472 32.7841C24.4472 34.6746 23.8022 36.2106 22.5122 37.3921C21.2223 38.5343 19.4437 39.1054 17.1766 39.1054C15.1439 39.1054 13.5217 38.5934 12.3099 37.5694C11.3514 36.7001 10.7846 35.6204 10.6095 34.3301C10.5705 34.0419 10.5509 33.7431 10.5509 33.434C10.5509 33.0795 10.5705 32.6857 10.6095 32.2524H2.63534L2.51807 33.434C2.47899 33.7884 2.45944 34.1626 2.45944 34.5564C2.45944 36.8407 3.04578 38.81 4.21844 40.4641C5.39112 42.0789 7.01333 43.3195 9.08506 44.186C11.1568 45.0131 13.5412 45.4266 16.2384 45.4266C19.4046 45.4266 22.2191 44.8752 24.6817 43.7724C27.1443 42.6303 29.0793 41.0352 30.4865 38.9872C31.8937 36.9392 32.5973 34.5367 32.5973 31.7798C32.5973 29.8894 32.1673 28.2549 31.3073 26.8764C30.4865 25.498 29.3724 24.3361 27.9652 23.3909ZM34.1748 47.1792L40.133 12.954H51.2889L51.2734 14.0478C51.3879 13.9802 51.5035 13.9141 51.6204 13.8494C53.5854 12.7605 55.7773 12.2451 58.1332 12.2451C60.626 12.2451 62.9123 12.7723 64.8859 13.9451C65.8672 14.5281 66.7149 15.2471 67.4295 16.0886C68.3807 15.2793 69.4215 14.5823 70.5485 14.0005C72.7323 12.8339 75.0744 12.2451 77.5411 12.2451C81.7126 12.2451 85.2278 13.5828 87.6053 16.6035C90.0276 19.6804 90.4597 23.8753 89.6209 28.6088L86.3296 47.1792H73.9285L77.1856 28.4681C77.1856 28.467 77.186 28.466 77.186 28.465C77.5736 26.1907 77.2915 24.9811 76.9286 24.389C76.6477 23.9313 76.1892 23.5484 74.9612 23.5484C73.8911 23.5484 72.8927 23.9304 71.8894 24.8851L71.8764 24.8977L71.8629 24.91C70.9272 25.7742 70.1471 27.1276 69.6756 29.1961L66.5142 47.1792H54.0516L57.3127 28.4456L57.3152 28.4314C57.7386 26.1561 57.4622 24.9633 57.1104 24.389L57.0965 24.3665L57.0831 24.3436C56.851 23.9464 56.4365 23.5484 55.1429 23.5484C53.9983 23.5484 52.949 23.9733 51.9095 25.049C50.8874 26.1067 50.0763 27.701 49.6305 30.0389L46.6401 47.1792H34.1748ZM47.2273 29.594C47.7354 26.9158 48.7127 24.8284 50.159 23.3318C51.6053 21.8352 53.2666 21.0869 55.1429 21.0869C57.0582 21.0869 58.4068 21.7564 59.1886 23.0955C60.0095 24.4346 60.1854 26.3644 59.7163 28.8851L56.9605 44.7177H64.4657L67.2801 28.7078C67.8274 26.266 68.8046 24.3952 70.2118 23.0955C71.619 21.7564 73.2021 21.0869 74.9612 21.0869C76.8374 21.0869 78.186 21.7564 79.0069 23.0955C79.8278 24.4346 80.0232 26.3644 79.5932 28.8851L76.8374 44.7177H84.284L87.2157 28.1761C87.9974 23.7651 87.4893 20.4174 85.6912 18.1331C83.8931 15.8488 81.1764 14.7066 77.5411 14.7066C75.4693 14.7066 73.5148 15.1989 71.6777 16.1835C70.6279 16.7237 69.6674 17.3795 68.7964 18.1511C68.1429 18.7299 67.5399 19.3737 66.9869 20.0826C66.6473 19.2265 66.2117 18.4715 65.6803 17.8176C65.1115 17.1177 64.4331 16.5336 63.6448 16.0654C62.1203 15.1595 60.2831 14.7066 58.1332 14.7066C56.1397 14.7066 54.3611 15.1398 52.7975 16.0063C52.249 16.3104 51.7266 16.6533 51.2311 17.0349C50.3141 17.7409 49.4875 18.5795 48.7518 19.5509L48.8104 15.4155H42.1848L37.0837 44.7177H44.5888L47.2273 29.594ZM92.2765 40.301L92.2627 40.275C90.9914 37.903 90.386 35.2472 90.386 32.3706C90.386 29.5967 90.8681 26.9745 91.8563 24.5299L91.8608 24.5194L91.8653 24.5089C92.8779 22.0684 94.277 19.9141 96.0641 18.0682L96.0747 18.0574L96.0853 18.0466C97.9151 16.2031 100.04 14.7823 102.443 13.7931C104.869 12.7552 107.458 12.2451 110.185 12.2451C113.114 12.2451 115.79 12.873 118.131 14.2183C120.461 15.5354 122.306 17.3675 123.622 19.6884C123.737 19.8901 123.846 20.0943 123.95 20.3007C124.516 19.513 125.138 18.7684 125.816 18.0682L125.827 18.0574L125.838 18.0466C127.667 16.2031 129.792 14.7823 132.196 13.7931C134.621 12.7552 137.21 12.2451 139.937 12.2451C142.865 12.2451 145.542 12.873 147.883 14.2183C150.213 15.5354 152.058 17.3675 153.374 19.6884C154.71 22.0435 155.338 24.7219 155.338 27.6444C155.338 30.4668 154.833 33.1357 153.8 35.6243L153.797 35.6317L153.794 35.6392C152.776 38.0474 151.354 40.1788 149.532 42.0165C147.734 43.8709 145.606 45.3101 143.173 46.3357C140.74 47.3786 138.127 47.8881 135.364 47.8881C132.448 47.8881 129.778 47.2288 127.435 45.8315C125.158 44.4744 123.35 42.6303 122.043 40.3266L122.029 40.301L122.015 40.275C121.917 40.0934 121.824 39.9102 121.734 39.7254C121.144 40.5334 120.492 41.2974 119.78 42.0165C117.982 43.8709 115.853 45.3101 113.421 46.3357C110.988 47.3786 108.376 47.8881 105.611 47.8881C102.696 47.8881 100.026 47.2288 97.6826 45.8315C95.4061 44.4744 93.5978 42.6303 92.2912 40.3266L92.2765 40.301ZM118.042 40.2869C119.068 39.2527 119.95 38.1136 120.688 36.8695C121.102 36.1709 121.471 35.4393 121.794 34.6746C122.104 33.9276 122.361 33.1596 122.564 32.3706C122.57 32.3479 122.576 32.3251 122.581 32.3024C122.581 32.3251 122.581 32.3478 122.581 32.3706C122.581 33.3197 122.656 34.2298 122.806 35.1008C122.806 35.1036 122.807 35.1064 122.807 35.1093C122.93 35.82 123.102 36.5047 123.324 37.1633C123.552 37.838 123.832 38.4853 124.164 39.1054C125.259 41.0352 126.764 42.5712 128.679 43.7134C130.595 44.8555 132.823 45.4266 135.364 45.4266C137.826 45.4266 140.113 44.9737 142.224 44.0678C144.374 43.162 146.23 41.9017 147.794 40.2869C149.397 38.6721 150.647 36.8014 151.546 34.6746C152.446 32.5084 152.895 30.1651 152.895 27.6444C152.895 25.0844 152.348 22.8395 151.253 20.9097C150.159 18.9798 148.634 17.4635 146.68 16.3608C144.765 15.258 142.517 14.7066 139.937 14.7066C137.513 14.7066 135.246 15.1595 133.135 16.0654C131.025 16.9318 129.168 18.1724 127.565 19.7872C126.588 20.7959 125.741 21.9121 125.024 23.1359C124.593 23.8713 124.209 24.6455 123.871 25.4586C123.585 26.1675 123.346 26.8961 123.155 27.6444C123.151 27.6599 123.147 27.6753 123.143 27.6908C123.143 27.6753 123.143 27.6599 123.143 27.6444C123.143 26.7503 123.076 25.8947 122.942 25.0774C122.942 25.0738 122.941 25.0702 122.941 25.0666C122.814 24.2965 122.629 23.5605 122.383 22.8588C122.145 22.1768 121.851 21.5271 121.501 20.9097C120.407 18.9798 118.882 17.4635 116.928 16.3608C115.012 15.258 112.765 14.7066 110.185 14.7066C107.761 14.7066 105.494 15.1595 103.383 16.0654C101.272 16.9318 99.4156 18.1724 97.8129 19.7872C96.2494 21.402 95.0181 23.2924 94.119 25.4586C93.259 27.5854 92.829 29.8894 92.829 32.3706C92.829 34.8912 93.3568 37.1361 94.4122 39.1054C95.5067 41.0352 97.0116 42.5712 98.927 43.7134C100.842 44.8555 103.07 45.4266 105.611 45.4266C108.074 45.4266 110.361 44.9737 112.471 44.0678C114.621 43.162 116.478 41.9017 118.042 40.2869ZM111.931 24.7913L111.916 24.777C111.209 24.0641 110.407 23.7257 109.364 23.7257C108.226 23.7257 107.207 24.0417 106.244 24.7025C105.303 25.3761 104.509 26.3267 103.888 27.6394L103.884 27.6498L103.879 27.6602C103.281 28.8947 102.953 30.3487 102.953 32.0752C102.953 33.7774 103.4 34.747 103.983 35.3426C104.737 36.0713 105.571 36.4075 106.608 36.4075C107.802 36.4075 108.812 36.0821 109.714 35.4402C110.673 34.7582 111.47 33.8161 112.088 32.5421C112.693 31.2582 113.019 29.7785 113.019 28.058C113.019 26.3653 112.559 25.4039 111.945 24.8053L111.931 24.7913ZM102.269 37.0967C101.096 35.9152 100.51 34.2414 100.51 32.0752C100.51 30.0272 100.901 28.1958 101.683 26.5811C102.465 24.9269 103.52 23.6272 104.849 22.682C106.217 21.7367 107.722 21.2641 109.364 21.2641C111.045 21.2641 112.471 21.8549 113.644 23.0364C114.856 24.218 115.462 25.8918 115.462 28.058C115.462 30.106 115.071 31.9571 114.289 33.6112C113.507 35.226 112.452 36.506 111.123 37.4512C109.794 38.3964 108.289 38.8691 106.608 38.8691C104.927 38.8691 103.481 38.2783 102.269 37.0967ZM141.683 24.7913L141.669 24.777C140.961 24.0641 140.159 23.7257 139.116 23.7257C137.978 23.7257 136.958 24.0417 135.997 24.7025C135.055 25.3761 134.261 26.3267 133.641 27.6394L133.636 27.6498L133.631 27.6602C133.033 28.8947 132.705 30.3487 132.705 32.0752C132.705 33.7775 133.152 34.7471 133.736 35.3427C134.489 36.0713 135.323 36.4075 136.36 36.4075C137.555 36.4075 138.564 36.0821 139.466 35.4402C140.425 34.7582 141.222 33.8161 141.841 32.5421C142.445 31.2582 142.771 29.7785 142.771 28.058C142.771 26.3653 142.311 25.4039 141.697 24.8053L141.683 24.7913ZM132.021 37.0967C130.849 35.9152 130.262 34.2414 130.262 32.0752C130.262 30.0272 130.653 28.1958 131.435 26.5811C132.217 24.9269 133.272 23.6272 134.601 22.682C135.969 21.7367 137.474 21.2641 139.116 21.2641C140.797 21.2641 142.224 21.8549 143.396 23.0364C144.608 24.218 145.214 25.8918 145.214 28.058C145.214 30.106 144.823 31.9571 144.041 33.6112C143.26 35.226 142.204 36.506 140.875 37.4512C139.546 38.3964 138.041 38.8691 136.36 38.8691C134.679 38.8691 133.233 38.2783 132.021 37.0967ZM160.465 47.1792L153.821 12.954H166.649L169.525 29.978L178.288 12.954H191.888L173.123 47.1792H160.465ZM168.339 37.6284L164.587 15.4155H156.789L162.476 44.7177H171.682L187.747 15.4155H179.773L168.339 37.6284ZM189.094 43.8221L189.086 43.8147C186.263 41.0193 184.955 37.305 184.955 32.9614C184.955 30.1868 185.437 27.5368 186.414 25.0311C187.388 22.5322 188.793 20.3253 190.624 18.4325C192.456 16.4993 194.621 14.9957 197.098 13.925C199.66 12.7943 202.438 12.2451 205.399 12.2451C208.291 12.2451 210.92 12.8186 213.189 14.0787C215.409 15.2726 217.155 16.971 218.365 19.1534C219.618 21.3012 220.213 23.7226 220.213 26.3447C220.213 27.4488 220.101 28.5768 219.884 29.7254C219.714 30.7844 219.496 31.7602 219.22 32.6392L219.095 33.0401H219.422L217.745 36.5653C216.715 38.7315 215.308 40.6636 213.542 42.3566C211.796 44.0674 209.766 45.4114 207.473 46.3903C205.157 47.3958 202.678 47.8881 200.063 47.8881C195.699 47.8881 191.954 46.6065 189.101 43.8295L189.094 43.8221ZM206.513 44.1269C208.545 43.2604 210.324 42.0789 211.848 40.5823C212.699 39.7676 213.452 38.8946 214.106 37.9632C214.654 37.1836 215.133 36.363 215.542 35.5017H207.92C207.177 36.6044 206.219 37.5103 205.047 38.2192C203.913 38.8887 202.604 39.2235 201.118 39.2235C199.242 39.2235 197.717 38.6721 196.545 37.5694C195.678 36.7253 195.132 35.6553 194.906 34.3595C194.826 33.9019 194.786 33.4162 194.786 32.9023V31.898H216.891C217.125 31.1497 217.321 30.2832 217.477 29.2986C217.673 28.2746 217.77 27.29 217.77 26.3447C217.77 24.0998 217.262 22.1109 216.246 20.378C215.269 18.6057 213.861 17.2272 212.024 16.2426C210.187 15.2186 207.978 14.7066 205.399 14.7066C202.74 14.7066 200.297 15.1989 198.069 16.1835C195.88 17.1287 193.984 18.4481 192.382 20.1417C190.779 21.7958 189.548 23.7257 188.688 25.9312C187.828 28.1367 187.398 30.4801 187.398 32.9614C187.398 36.7817 188.532 39.8143 190.799 42.0592C193.105 44.3041 196.193 45.4266 200.063 45.4266C202.369 45.4266 204.519 44.9934 206.513 44.1269ZM210.324 26.522C210.324 26.6401 210.304 26.8568 210.265 27.1718H195.783C196.105 26.2471 196.51 25.4266 196.995 24.7103C197.626 23.7793 198.395 23.0244 199.301 22.4457C200.903 21.3823 202.604 20.8506 204.402 20.8506C206.2 20.8506 207.646 21.3626 208.741 22.3866C209.422 23.0238 209.884 23.7984 210.126 24.7103C210.186 24.9364 210.232 25.1709 210.265 25.4139C210.313 25.7655 210.332 26.1349 210.324 26.522ZM207.501 24.7103C207.382 24.5111 207.239 24.3411 207.078 24.1904C206.524 23.6723 205.716 23.3121 204.402 23.3121C203.114 23.3121 201.876 23.6841 200.644 24.5015L200.627 24.5131L200.609 24.5244C200.517 24.5833 200.426 24.6452 200.337 24.7103H207.501ZM197.407 34.3595C197.58 34.9771 197.869 35.4307 198.227 35.7845C198.871 36.3821 199.76 36.762 201.118 36.762C202.222 36.762 203.091 36.5186 203.801 36.1019C204.585 35.6261 205.221 35.0467 205.729 34.3595H197.407ZM225.023 47.5928C223.078 47.5928 221.286 46.9733 219.895 45.5722C218.579 44.2459 217.89 42.577 217.89 40.7004C217.89 38.8081 218.563 37.1123 219.895 35.7697C221.286 34.3686 223.078 33.7491 225.023 33.7491C226.951 33.7491 228.716 34.3822 230.093 35.7697C231.426 37.1123 232.099 38.8081 232.099 40.7004C232.099 42.577 231.409 44.2459 230.093 45.5722C228.716 46.9597 226.951 47.5928 225.023 47.5928ZM221.623 43.8315C222.483 44.698 223.616 45.1312 225.023 45.1312C226.392 45.1312 227.506 44.698 228.366 43.8315C229.226 42.9651 229.656 41.9214 229.656 40.7004C229.656 39.4401 229.226 38.3767 228.366 37.5103C227.506 36.6438 226.392 36.2106 225.023 36.2106C223.616 36.2106 222.483 36.6438 221.623 37.5103C220.763 38.3767 220.333 39.4401 220.333 40.7004C220.333 41.9214 220.763 42.9651 221.623 43.8315Z" fill="#FFD6BF"/>
</svg>
