<svg width="48" height="48" viewBox="0 0 48 48" fill="none" xmlns="http://www.w3.org/2000/svg">
<path fill-rule="evenodd" clip-rule="evenodd" d="M23.1455 15.0279C23.1455 9.50148 27.6255 5.02148 33.1519 5.02148C36.3967 5.02148 38.9855 6.55428 40.7199 8.78148C42.5544 8.40546 44.3131 7.72514 45.9231 6.76868C45.2996 8.70854 43.9946 10.3569 42.2495 11.4087L42.2559 11.4183C43.9125 11.2181 45.5302 10.7727 47.0559 10.0967L47.0527 10.1031C45.9743 11.7191 44.6207 13.1431 43.0591 14.3047C43.1423 14.8711 43.1871 15.4375 43.1871 16.0007C43.1871 27.7991 34.1983 41.5207 17.6671 41.5207C12.7925 41.525 8.0199 40.1252 3.91987 37.4887C3.72685 37.3648 3.56271 37.2009 3.4386 37.008C3.31448 36.8151 3.23328 36.5978 3.2005 36.3708C3.16773 36.1438 3.18414 35.9124 3.24863 35.6923C3.31312 35.4722 3.42417 35.2685 3.57427 35.0951C3.71701 34.8578 3.92514 34.6667 4.17373 34.5446C4.42232 34.4226 4.70083 34.3748 4.97587 34.4071C7.90707 34.7527 10.8319 34.3943 13.4143 33.2679C12.1405 32.7051 11.0002 31.8793 10.0682 30.8447C9.13616 29.8101 8.43348 28.5901 8.00627 27.2647C7.92728 27.0182 7.9162 26.7549 7.97421 26.5026C8.03221 26.2503 8.15715 26.0184 8.33587 25.8311C7.28422 24.9082 6.44185 23.7712 5.86514 22.4964C5.28844 21.2216 4.9907 19.8383 4.99187 18.4391V18.3303C4.9918 17.9955 5.10836 17.6712 5.32153 17.413C5.53469 17.1549 5.83113 16.9791 6.15987 16.9159C5.43437 15.5158 5.05678 13.9616 5.05907 12.3847C5.05907 10.8871 5.06867 8.99908 6.12147 7.29668C6.23395 7.11633 6.38497 6.96312 6.56367 6.84804C6.74238 6.73296 6.94434 6.65887 7.15507 6.63108C7.46063 6.53472 7.78809 6.5323 8.09503 6.62416C8.40198 6.71601 8.67428 6.89791 8.87667 7.14628C12.4438 11.5344 17.5458 14.4023 23.1487 15.1687V15.0279H23.1455ZM17.6671 38.3207C15.2187 38.3225 12.787 37.9192 10.4703 37.1271C13.2568 36.6675 15.8851 35.5215 18.1183 33.7927C18.3523 33.6091 18.5238 33.3575 18.6091 33.0726C18.6943 32.7876 18.6893 32.4832 18.5946 32.2012C18.4999 31.9193 18.3202 31.6735 18.0802 31.4978C17.8402 31.3221 17.5517 31.225 17.2543 31.2199C16.183 31.2006 15.1306 30.9341 14.1792 30.4412C13.2278 29.9483 12.4031 29.2423 11.7695 28.3783C12.3775 28.3303 12.9727 28.2247 13.5487 28.0711C13.8627 27.9871 14.139 27.7994 14.3328 27.5385C14.5266 27.2776 14.6264 26.9588 14.616 26.6339C14.6056 26.3091 14.4857 25.9973 14.2756 25.7493C14.0656 25.5013 13.7778 25.3316 13.4591 25.2679C12.2417 25.0212 11.1122 24.454 10.1873 23.6248C9.26248 22.7956 8.57581 21.7345 8.19827 20.5511C8.83827 20.7047 9.50707 20.7975 10.1919 20.8199C10.5048 20.8304 10.8127 20.7387 11.0688 20.5585C11.3249 20.3784 11.5153 20.1196 11.6111 19.8216C11.707 19.5235 11.7031 19.2023 11.6 18.9066C11.4969 18.611 11.3003 18.3569 11.0399 18.1831C10.085 17.5469 9.30203 16.6848 8.76052 15.6732C8.21902 14.6617 7.93575 13.5321 7.93587 12.3847C7.93587 11.8471 7.94547 11.3703 7.97747 10.9351C12.4551 15.5046 18.4901 18.2194 24.8799 18.5383C25.1266 18.5508 25.3729 18.5061 25.5995 18.4075C25.826 18.3089 26.0267 18.1592 26.1857 17.9702C26.3447 17.7811 26.4578 17.5577 26.516 17.3176C26.5743 17.0775 26.5761 16.8272 26.5215 16.5863C26.2865 15.5871 26.2805 14.5477 26.504 13.5458C26.7275 12.544 27.1747 11.6057 27.8121 10.8011C28.4495 9.99659 29.2607 9.34662 30.1848 8.89989C31.109 8.45316 32.1222 8.22124 33.1487 8.22148C37.0975 8.22148 39.9839 11.8791 39.9839 16.0039C39.9839 26.4231 32.0607 38.3207 17.6639 38.3207H17.6671Z" fill="#201D26"/>
</svg>
